<?xml version="1.0" encoding="UTF-8"?>

<!-- Copyright 2023 Sebastian Rasor <https://www.sebastianrasor.com/contact>
   -
   - This file is part of www.sebastianrasor.com
   -
   - www.sebastianrasor.com is free software: you can redistribute it and/or
   - modify it under the terms of the GNU Affero General Public License as
   - published by the Free Software Foundation, either version 3 of the
   - License, or (at your option) any later version.
   -
   - www.sebastianrasor.com is distributed in the hope that it will be useful,
   - but WITHOUT ANY WARRANTY; without even the implied warranty of
   - MERCHANTABILITY or FITNESS FOR A PARTICULAR PURPOSE.  See the GNU Affero
   - General Public License for more details.
   -
   - You should have received a copy of the GNU Affero General Public License
   - along with www.sebastianrasor.com. If not, see
   - <https://www.gnu.org/licenses/>. -->

<svg
	width="43.089359mm"
	height="43.089359mm"
	viewBox="0 0 43.089359 43.089359"
	version="1.1"
	xmlns="http://www.w3.org/2000/svg"
>
	<style>
		path {
			fill: black;
		}
		@media (prefers-color-scheme: dark) {
			path {
				fill: white;
			}
		}
	</style>
	<path d="M 9.957015,-2.5431314e-7 C 7.179949,-2.5431314e-7 4.826348,0.94825375 2.895948,2.8447867 0.965547,4.7074537 0,6.9934327 0,9.7027657 0,11.9041 0.643698,13.834161 1.930632,15.493628 c 1.286933,1.6256 2.844817,2.760458 4.673617,3.403925 0.508,0.169333 1.930123,0.541512 4.266923,1.117245 2.370666,0.575734 3.77653,0.948429 4.216797,1.117762 1.207016,0.495186 2.186935,1.288505 2.941421,2.377633 1.360471,-2.2e-4 2.720951,0.0016 4.081406,-0.0021 C 21.82357,22.47293 21.380441,21.511161 20.777543,20.62455 19.659943,18.931217 18.288149,17.711959 16.662549,16.966892 15.951349,16.628226 14.359397,16.171131 11.88713,15.595398 9.44873,14.985798 8.026607,14.613103 7.620207,14.477639 6.333274,14.003503 5.24926,13.207788 4.368726,12.090188 3.488193,10.972588 3.047877,9.6516337 3.047877,8.1276387 c 0,-1.761069 0.643698,-3.318951 1.930631,-4.673618 1.3208,-1.354666 2.997151,-2.031917 5.02915,-2.031917 3.860802,0 6.654717,1.744489 8.381917,5.232756 0.01474,0.03047 0.02633,0.061 0.04083,0.09147 h 2.702676 v -5.374818 c 0,-0.88053295 -0.20338,-1.32084995 -0.60978,-1.32084995 -0.1016,0 -0.203292,0.03407 -0.304892,0.101803 -0.169333,0.135467 -0.914204,1.26980995 -2.235004,3.40340995 -0.575734,-0.6096 -1.066896,-1.083986 -1.473296,-1.422652 -0.4064,-0.372534 -1.236188,-0.812333 -2.489255,-1.32033295 C 12.767789,0.27102275 11.413287,1.9745687e-5 9.95702,1.9745687e-5 Z M 20.755323,9.3792707 c -0.30234,2.64e-4 -0.604676,0.0024 -0.906923,0.01085 -0.161047,0.0047 -0.320553,0.01204 -0.48214,0.02066 0.03013,0.131058 0.06507,0.262189 0.09043,0.393258 0.2032,1.0160003 0.338442,1.7440963 0.406175,2.1843633 0.06773,0.4064 0.271116,0.609782 0.609783,0.609782 0.440266,0 0.660423,-0.287779 0.660423,-0.863512 V 9.3792577 c -0.126005,-1.98e-4 -0.251751,-1.27e-4 -0.377753,0 z M 0.609782,24.282239 C 0.203382,24.282239 0,24.620864 0,25.298197 v 10.261388 c 0,0.745067 0.13576,1.168606 0.406694,1.270206 H 0.50798 c 0.03387,0.03387 0.06794,0.05064 0.101802,0.05064 0.372533,0 1.219097,-1.168413 2.539897,-3.505213 2.506134,2.370667 5.605124,3.556373 9.29659,3.556373 2.9464,0 5.350846,-1.016391 7.213512,-3.048394 1.896533,-2.065864 2.84479,-4.521158 2.84479,-7.365958 0,-0.264075 -0.0087,-0.523801 -0.02479,-0.780314 h -3.341915 c 0.211937,0.707197 0.318844,1.458108 0.318844,2.25361 0,1.998133 -0.660477,3.725333 -1.981274,5.181594 -1.286933,1.45627 -2.963286,2.184363 -5.029152,2.184363 -3.522132,0 -6.299274,-1.015875 -8.331274,-3.047875 C 2.38781,30.581417 1.439556,28.160193 1.270223,25.044463 1.202493,24.53646 0.982331,24.282235 0.609797,24.282235 Z" />
    <path d="m 7.6310595,7.2755233 v 1.57458 h 0.660425 c 1.9303995,0 3.1664345,0.135244 3.7083005,0.406178 0.575734,0.237066 0.86403,0.8131437 0.864031,1.7275437 v 4.298444 c 0.968859,0.239604 1.937017,0.482426 2.889229,0.782381 0.511452,0.149924 1.003273,0.354026 1.479497,0.590661 v -5.874575 c 0,-0.9143997 0.186086,-1.4564067 0.55862,-1.6257397 0.372533,-0.2032 1.304012,-0.304893 2.794145,-0.304893 h 2.235007 c 3.2512,0 5.537179,0.660477 6.857979,1.9812737 1.3208,1.286933 1.981274,3.183443 1.981274,5.689576 0,1.557867 -0.254228,2.844747 -0.762228,3.860747 -0.474133,1.016 -1.184936,1.794941 -2.133203,2.336808 -0.948266,0.508 -1.947365,0.863402 -2.997232,1.066602 -1.049866,0.169333 -2.319972,0.254248 -3.810103,0.254248 H 17.232542 V 23.29005 c -0.299731,-0.297391 -0.600599,-0.593587 -0.932244,-0.855247 -0.107204,-0.08385 -0.27011,-0.19831 -0.34985,-0.250629 -0.318339,-0.211749 -0.657665,-0.391377 -1.010274,-0.538985 -0.678731,-0.238086 -1.37926,-0.408139 -2.076358,-0.586529 v 13.757302 c 0.165275,-0.01143 0.330042,-0.025 0.494543,-0.04496 1.321327,-0.143407 2.584651,-0.753605 3.504179,-1.715656 0.123354,-0.120732 0.24665,-0.241522 0.370004,-0.362252 v -7.485332 h 5.638413 c 2.506134,0 4.284176,0.677251 5.334043,2.031918 1.049866,1.3208 1.575096,2.861908 1.575096,4.622974 v 3.606499 c 0,1.456266 0.271005,2.709592 0.812871,3.759459 0.541867,1.049867 1.25267,1.845585 2.133203,2.387452 0.880534,0.508 1.761165,0.880695 2.641701,1.117761 0.914397,0.237067 1.862653,0.355534 2.844787,0.355534 0.948266,0 1.761278,-0.22016 2.438609,-0.660426 0.7112,-0.440267 1.219139,-0.982274 1.523939,-1.625741 0.338666,-0.643466 0.575601,-1.235802 0.711067,-1.777669 0.135467,-0.541866 0.203089,-1.016251 0.203089,-1.422651 0,-0.575733 -0.202866,-0.863513 -0.609266,-0.863513 -0.270934,0 -0.457539,0.118467 -0.559139,0.355534 l -0.151929,0.812869 c -0.135467,0.575733 -0.288002,1.151294 -0.457335,1.727028 -0.169333,0.541866 -0.507963,1.067096 -1.015958,1.575096 -0.508002,0.474133 -1.117629,0.711068 -1.828829,0.711068 -1.286933,0 -2.201635,-0.897409 -2.743504,-2.692342 -0.270931,-0.9144 -0.507865,-2.049259 -0.711068,-3.403925 -0.169328,-1.388534 -0.338645,-2.556947 -0.507978,-3.505214 -0.169334,-0.982133 -0.457113,-1.998008 -0.863513,-3.047875 -0.4064,-1.049867 -1.083651,-1.947278 -2.031918,-2.692342 -0.9144,-0.778933 -2.116881,-1.40534 -3.607014,-1.879473 1.2192,-0.338667 1.964589,-0.558824 2.235522,-0.660424 2.065867,-0.778933 3.691372,-1.845656 4.876705,-3.200323 1.185333,-1.354667 1.777669,-2.82815 1.777669,-4.419883 0,-1.490133 -0.507941,-2.895481 -1.523936,-4.216281 -1.016,-1.3208 -2.421348,-2.4215907 -4.216281,-3.3021237 -2.201333,-1.083733 -5.046096,-1.625224 -8.534363,-1.625224 z M 17.232542,36.393124 c -0.452972,0.224102 -0.918951,0.421122 -1.402501,0.569992 -0.958659,0.312897 -1.961835,0.444077 -2.966225,0.494544 v 0.805635 c -0.03387,0.9144 -0.33894,1.507254 -0.914673,1.778187 -0.541867,0.237067 -1.761125,0.355534 -3.6576585,0.355534 h -0.660425 v 1.574581 c 2.5061335,-0.1016 4.9787185,-0.152445 7.4171195,-0.152445 2.4384,0 4.910468,0.05085 7.416601,0.152445 v -1.574581 h -0.507979 c -1.998133,0 -3.285013,-0.118467 -3.860747,-0.355534 -0.575733,-0.270933 -0.863512,-0.914632 -0.863512,-1.930632 z" />
</svg>
