<svg viewBox="0 0 13.028025 7.6940589" xmlns="http://www.w3.org/2000/svg">
  <style>
    path {
      fill: black;
    }
    @media (prefers-color-scheme: dark) {
      path {
        fill: white;
      }
    }
  </style>
  <path d="M 2.0644531,0 C 0.8897069,0 0,0.93090466 0,2.0527344 c 0,0.8784139 0.56122133,1.6517509 1.3867188,1.9375 0.1164161,0.042333 0.6556533,0.1696933 1.3964843,0.3496094 0.2857491,0.074083 0.6040583,0.1474804 0.9003907,0.5390624 0.2222493,0.2751657 0.328125,0.6253605 0.328125,0.9746094 0,0.7514143 -0.5289716,1.5117188 -1.4179688,1.5117188 -0.3069157,0 -1.1129132,-0.051731 -1.67382812,-0.5703125 C 0.3060905,6.2234237 0.27425518,5.5450613 0.26367188,5.1640625 0.25308857,5.0582295 0.16846865,5.0585938 0.13671875,5.0585938 -8.6415e-4,5.0585938 0,5.1337194 0,5.3242188 v 2.1152343 c 0,0.1799161 7.712e-4,0.2539063 0.1171875,0.2539063 0.0740831,0 0.08412,-0.020303 0.15820312,-0.1367188 0,-0.010583 0.0316105,-0.0426 0.38085938,-0.6035156 0.32808229,0.3598322 1.0053519,0.7402344 1.9472656,0.7402344 1.2382461,0 2.0839844,-1.0370089 2.0839844,-2.2011719 0,-1.0583299 -0.6969403,-1.9250527 -1.5859375,-2.1367187 L 1.7460938,3.0273438 C 1.0899293,2.8685942 0.67773438,2.2974251 0.67773438,1.6835938 c 0,-0.74083106 0.57098712,-1.3867188 1.39648442,-1.3867188 1.767411,0 2.0009533,1.734689 2.0644531,2.2109375 0.010583,0.0635 0.010536,0.1269531 0.1269531,0.1269531 0.1375829,0 0.1367188,-0.052824 0.1367188,-0.2539062 V 0.25390625 C 4.4023438,0.07399016 4.4035257,0 4.2871094,0 4.2130263,0 4.2010362,0.00971916 4.1269531,0.13671875 L 3.7578125,0.74023438 C 3.4403135,0.43331869 3.0063668,0 2.0644531,0 Z m 3.5878907,0.23242188 v 0.328125 H 5.90625 c 0.8149141,0 0.8359375,0.11704807 0.8359375,0.49804692 v 5.5761718 c 0,0.3809988 -0.021024,0.4980469 -0.8359375,0.4980469 H 5.6523438 v 0.328125 c 0.3809987,-0.03175 1.1321731,-0.03125 1.5449218,-0.03125 0.4127487,0 1.1639231,-5e-4 1.5449219,0.03125 V 7.1328125 H 8.4882812 c -0.8149141,0 -0.8359374,-0.1170481 -0.8359374,-0.4980469 V 3.9589844 h 1.2167968 c 0.1693328,0 0.6139595,-4.572e-4 0.984375,0.359375 0.4021654,0.3809988 0.4023434,0.7088876 0.4023434,1.4179687 0,0.6879145 -3.22e-4,1.1115065 0.433594,1.5136719 0.433915,0.3809988 1.016486,0.4433594 1.333985,0.4433594 0.825497,0 1.003906,-0.8677301 1.003906,-1.1640625 0,-0.0635 8.64e-4,-0.1796875 -0.136719,-0.1796875 -0.116416,0 -0.11637,0.095839 -0.126953,0.1699218 -0.0635,0.7514144 -0.434637,0.9414063 -0.699219,0.9414063 -0.518582,0 -0.601833,-0.5391906 -0.75,-1.5234375 L 11.175781,5.0898438 C 10.985281,4.4125127 10.466847,4.0643639 9.8847656,3.8632812 10.911346,3.6092821 11.736328,2.9641693 11.736328,2.1386719 c 0,-1.0159967 -1.205974,-1.90625002 -2.7617186,-1.90625002 z m 2.8574218,0.328125 c 0.9524969,0 2.1367184,0.0435466 2.1367184,1.57812502 0,0.7302477 -0.253984,1.5859375 -1.8203121,1.5859375 H 7.6523438 V 0.984375 c 0,-0.2434159 -4.108e-4,-0.37059385 0.2324218,-0.40234375 0.105833,-0.0211666 0.413334,-0.0214844 0.625,-0.0214844 z" />
</svg>
